<mxfile host="app.diagrams.net" modified="2022-04-07T05:46:29.513Z" agent="5.0 (Windows NT 10.0; Win64; x64) AppleWebKit/537.36 (KHTML, like Gecko) Chrome/99.0.4844.84 Safari/537.36" etag="bpbKfBpVMeBdHVWjc1NJ" version="17.4.0" type="github">
  <diagram id="wgwwSIiZGT3R6JuxHkyF" name="Page-1">
    <mxGraphModel dx="2062" dy="800" grid="1" gridSize="10" guides="1" tooltips="1" connect="1" arrows="1" fold="1" page="1" pageScale="1" pageWidth="827" pageHeight="1169" math="0" shadow="0">
      <root>
        <mxCell id="0" />
        <mxCell id="1" parent="0" />
        <mxCell id="Jz0GT0_iuqn3jo_b6JLQ-1" value="Авторизация" style="ellipse;whiteSpace=wrap;html=1;" vertex="1" parent="1">
          <mxGeometry x="220" y="150" width="100" height="60" as="geometry" />
        </mxCell>
        <mxCell id="Jz0GT0_iuqn3jo_b6JLQ-2" value="Регистрация" style="ellipse;whiteSpace=wrap;html=1;" vertex="1" parent="1">
          <mxGeometry x="217.5" y="40" width="105" height="70" as="geometry" />
        </mxCell>
        <mxCell id="Jz0GT0_iuqn3jo_b6JLQ-3" value="" style="endArrow=none;html=1;rounded=0;entryX=0;entryY=0.5;entryDx=0;entryDy=0;" edge="1" parent="1" source="Jz0GT0_iuqn3jo_b6JLQ-5" target="Jz0GT0_iuqn3jo_b6JLQ-2">
          <mxGeometry width="50" height="50" relative="1" as="geometry">
            <mxPoint x="510" y="-40" as="sourcePoint" />
            <mxPoint x="560" y="-90" as="targetPoint" />
          </mxGeometry>
        </mxCell>
        <mxCell id="Jz0GT0_iuqn3jo_b6JLQ-4" value="" style="endArrow=none;html=1;rounded=0;entryX=0;entryY=0.5;entryDx=0;entryDy=0;" edge="1" parent="1" source="Jz0GT0_iuqn3jo_b6JLQ-5" target="Jz0GT0_iuqn3jo_b6JLQ-1">
          <mxGeometry width="50" height="50" relative="1" as="geometry">
            <mxPoint x="140" y="-330" as="sourcePoint" />
            <mxPoint x="560" y="-90" as="targetPoint" />
          </mxGeometry>
        </mxCell>
        <mxCell id="Jz0GT0_iuqn3jo_b6JLQ-5" value="Не авторизированный&lt;br&gt;&amp;nbsp;пользователь" style="shape=umlActor;verticalLabelPosition=bottom;verticalAlign=top;html=1;outlineConnect=0;" vertex="1" parent="1">
          <mxGeometry x="60" y="60" width="60" height="110" as="geometry" />
        </mxCell>
        <mxCell id="Jz0GT0_iuqn3jo_b6JLQ-6" value="Авторизированный&lt;br&gt;&amp;nbsp;пользователь" style="shape=umlActor;verticalLabelPosition=bottom;verticalAlign=top;html=1;outlineConnect=0;" vertex="1" parent="1">
          <mxGeometry x="60" y="350" width="50" height="100" as="geometry" />
        </mxCell>
        <mxCell id="Jz0GT0_iuqn3jo_b6JLQ-7" value="Выбрать тип задачи" style="ellipse;whiteSpace=wrap;html=1;" vertex="1" parent="1">
          <mxGeometry x="354" y="360" width="120" height="80" as="geometry" />
        </mxCell>
        <mxCell id="Jz0GT0_iuqn3jo_b6JLQ-8" value="" style="endArrow=none;html=1;rounded=0;entryX=0;entryY=0.5;entryDx=0;entryDy=0;" edge="1" parent="1" source="Jz0GT0_iuqn3jo_b6JLQ-6" target="Jz0GT0_iuqn3jo_b6JLQ-7">
          <mxGeometry width="50" height="50" relative="1" as="geometry">
            <mxPoint x="120" y="420" as="sourcePoint" />
            <mxPoint x="430" y="620" as="targetPoint" />
          </mxGeometry>
        </mxCell>
        <mxCell id="Jz0GT0_iuqn3jo_b6JLQ-9" value="Начать решать" style="ellipse;whiteSpace=wrap;html=1;" vertex="1" parent="1">
          <mxGeometry x="570" y="490" width="120" height="80" as="geometry" />
        </mxCell>
        <mxCell id="Jz0GT0_iuqn3jo_b6JLQ-10" value="Посмотреть статистику" style="ellipse;whiteSpace=wrap;html=1;" vertex="1" parent="1">
          <mxGeometry x="290" y="490" width="120" height="80" as="geometry" />
        </mxCell>
        <mxCell id="Jz0GT0_iuqn3jo_b6JLQ-11" value="" style="endArrow=none;html=1;rounded=0;entryX=0;entryY=0.5;entryDx=0;entryDy=0;" edge="1" parent="1" source="Jz0GT0_iuqn3jo_b6JLQ-6" target="Jz0GT0_iuqn3jo_b6JLQ-10">
          <mxGeometry width="50" height="50" relative="1" as="geometry">
            <mxPoint x="430" y="640" as="sourcePoint" />
            <mxPoint x="480" y="590" as="targetPoint" />
          </mxGeometry>
        </mxCell>
        <mxCell id="Jz0GT0_iuqn3jo_b6JLQ-13" value="Генерация задачи" style="ellipse;whiteSpace=wrap;html=1;" vertex="1" parent="1">
          <mxGeometry x="570" y="360" width="120" height="80" as="geometry" />
        </mxCell>
        <mxCell id="Jz0GT0_iuqn3jo_b6JLQ-14" value="" style="endArrow=classic;html=1;rounded=0;exitX=0.5;exitY=1;exitDx=0;exitDy=0;entryX=0.5;entryY=0;entryDx=0;entryDy=0;" edge="1" parent="1" source="Jz0GT0_iuqn3jo_b6JLQ-13" target="Jz0GT0_iuqn3jo_b6JLQ-9">
          <mxGeometry width="50" height="50" relative="1" as="geometry">
            <mxPoint x="440" y="630" as="sourcePoint" />
            <mxPoint x="490" y="580" as="targetPoint" />
          </mxGeometry>
        </mxCell>
        <mxCell id="Jz0GT0_iuqn3jo_b6JLQ-15" value="Проверка решения" style="ellipse;whiteSpace=wrap;html=1;" vertex="1" parent="1">
          <mxGeometry x="570" y="620" width="120" height="80" as="geometry" />
        </mxCell>
        <mxCell id="Jz0GT0_iuqn3jo_b6JLQ-16" value="" style="endArrow=classic;html=1;rounded=0;exitX=0.5;exitY=1;exitDx=0;exitDy=0;entryX=0.5;entryY=0;entryDx=0;entryDy=0;" edge="1" parent="1" source="Jz0GT0_iuqn3jo_b6JLQ-9" target="Jz0GT0_iuqn3jo_b6JLQ-15">
          <mxGeometry width="50" height="50" relative="1" as="geometry">
            <mxPoint x="400" y="670" as="sourcePoint" />
            <mxPoint x="450" y="620" as="targetPoint" />
          </mxGeometry>
        </mxCell>
        <mxCell id="Jz0GT0_iuqn3jo_b6JLQ-17" value="Изменение статистики" style="ellipse;whiteSpace=wrap;html=1;" vertex="1" parent="1">
          <mxGeometry x="360" y="620" width="116" height="80" as="geometry" />
        </mxCell>
        <mxCell id="Jz0GT0_iuqn3jo_b6JLQ-18" value="" style="endArrow=classic;html=1;rounded=0;exitX=0;exitY=0.5;exitDx=0;exitDy=0;entryX=1;entryY=0.5;entryDx=0;entryDy=0;" edge="1" parent="1" source="Jz0GT0_iuqn3jo_b6JLQ-15" target="Jz0GT0_iuqn3jo_b6JLQ-17">
          <mxGeometry width="50" height="50" relative="1" as="geometry">
            <mxPoint x="400" y="660" as="sourcePoint" />
            <mxPoint x="450" y="610" as="targetPoint" />
          </mxGeometry>
        </mxCell>
        <mxCell id="Jz0GT0_iuqn3jo_b6JLQ-21" value="" style="endArrow=classic;html=1;rounded=0;exitX=1;exitY=0.5;exitDx=0;exitDy=0;entryX=0;entryY=0.5;entryDx=0;entryDy=0;" edge="1" parent="1" source="Jz0GT0_iuqn3jo_b6JLQ-7" target="Jz0GT0_iuqn3jo_b6JLQ-13">
          <mxGeometry width="50" height="50" relative="1" as="geometry">
            <mxPoint x="510" y="350" as="sourcePoint" />
            <mxPoint x="510" y="400" as="targetPoint" />
          </mxGeometry>
        </mxCell>
      </root>
    </mxGraphModel>
  </diagram>
</mxfile>
